<?xml version="1.0" encoding="UTF-8"?>
<svg version="1.1" xmlns="http://www.w3.org/2000/svg" width="1596" height="1596">
<path d="M0 0 C1.80416382 -0.00713013 1.80416382 -0.00713013 3.64477539 -0.0144043 C4.7558667 -0.012229 5.86695801 -0.01005371 7.01171875 -0.0078125 C8.50964966 -0.00612061 8.50964966 -0.00612061 10.0378418 -0.00439453 C12.3125 0.125 12.3125 0.125 13.3125 1.125 C13.40940672 2.66277915 13.43621688 4.20502118 13.43554783 5.74585056 C13.43753888 6.75105954 13.43952993 7.75626851 13.44158131 8.79193836 C13.43866847 9.90961863 13.43575563 11.0272989 13.43275452 12.17884827 C13.43360894 13.35576577 13.43446337 14.53268328 13.43534368 15.74526495 C13.43671186 19.02668085 13.43356442 22.30803785 13.42856562 25.58944666 C13.4242644 29.12252278 13.42570731 32.65559693 13.4264679 36.18867493 C13.42699334 42.31483966 13.42384441 48.44099378 13.41823006 54.56715584 C13.41011782 63.42465833 13.40750012 72.28215567 13.40624207 81.13966148 C13.40405111 95.50888205 13.39738985 109.87809696 13.38793945 124.24731445 C13.37876646 138.20922823 13.37168508 152.17114046 13.36743164 166.13305664 C13.36716892 166.99304864 13.36690619 167.85304065 13.36663551 168.73909301 C13.36533051 173.05323489 13.36406679 177.36737678 13.36282361 181.68151867 C13.35244964 217.49601645 13.33483014 253.31050778 13.3125 289.125 C12.74834759 289.15869816 12.18419518 289.19239632 11.60294724 289.22711563 C5.64328798 289.58383871 -0.31603724 289.9458096 -6.27520752 290.31060791 C-8.48875167 290.44545429 -10.70237334 290.57903511 -12.91607666 290.71124268 C-76.8651194 294.53508938 -139.51190263 308.50195647 -197.69189453 335.72412109 C-200.52498347 337.04900001 -203.36812548 338.3492616 -206.21484375 339.64453125 C-219.46071595 345.73586863 -232.11850349 352.7483436 -244.6875 360.125 C-245.4825293 360.59019043 -246.27755859 361.05538086 -247.09667969 361.53466797 C-264.69111035 371.8907877 -281.78128465 383.31552745 -297.6875 396.125 C-298.30254395 396.61677734 -298.91758789 397.10855469 -299.55126953 397.61523438 C-317.99014287 412.37359423 -335.50455961 427.89931791 -352.25 444.5625 C-352.89243652 445.20026367 -353.53487305 445.83802734 -354.19677734 446.49511719 C-357.99909633 450.31034559 -361.60635447 454.24694841 -365.12670898 458.32348633 C-367.01906144 460.50769855 -368.97676672 462.62715885 -370.9375 464.75 C-375.92751139 470.29352526 -380.51756545 476.11042822 -385.06103516 482.01855469 C-386.8349517 484.31596567 -388.62655571 486.59902278 -390.41796875 488.8828125 C-400.25620705 501.51002378 -409.19126035 514.5623502 -417.6875 528.125 C-418.2129541 528.95821777 -418.7384082 529.79143555 -419.27978516 530.64990234 C-428.29103057 545.01293075 -436.08430371 559.97871174 -443.6875 575.125 C-444.15430176 576.04925781 -444.62110352 576.97351563 -445.10205078 577.92578125 C-472.91194353 633.31719137 -488.07886033 694.6090898 -493.6875 756.125 C-493.7913501 757.23472168 -493.8952002 758.34444336 -494.00219727 759.48779297 C-494.8886288 770.14856756 -494.8870772 780.81000327 -494.875 791.5 C-494.87439575 792.48954681 -494.8737915 793.47909363 -494.87316895 794.49862671 C-494.73788127 876.54647545 -476.43870575 955.70616824 -439.6875 1029.125 C-439.20700195 1030.0938916 -438.72650391 1031.0627832 -438.23144531 1032.06103516 C-420.83602215 1066.98732317 -398.36284029 1099.75692887 -372.6875 1129.125 C-372.08035156 1129.83140625 -371.47320312 1130.5378125 -370.84765625 1131.265625 C-363.58291645 1139.67562966 -356.11054112 1147.94559821 -348.05078125 1155.6015625 C-346.6875 1157.125 -346.6875 1157.125 -346.6875 1159.125 C-346.0275 1159.125 -345.3675 1159.125 -344.6875 1159.125 C-342.97334678 1160.74278685 -341.31496694 1162.42003463 -339.6875 1164.125 C-337.91816069 1165.91814208 -336.14728102 1167.70976534 -334.375 1169.5 C-333.49199219 1170.39460938 -332.60898437 1171.28921875 -331.69921875 1172.2109375 C-317.93620332 1185.77918221 -302.14968637 1197.58553426 -286.6875 1209.125 C-286.12595215 1209.54668457 -285.5644043 1209.96836914 -284.98583984 1210.40283203 C-262.48725408 1227.21322573 -238.03466751 1242.02931558 -212.6875 1254.125 C-211.71232422 1254.59663574 -210.73714844 1255.06827148 -209.73242188 1255.55419922 C-184.147881 1267.89647097 -157.92140718 1277.98941791 -130.6875 1286.125 C-129.80175293 1286.39119141 -128.91600586 1286.65738281 -128.00341797 1286.93164062 C-104.6719693 1293.85179998 -80.78684278 1298.6696907 -56.6875 1301.9375 C-55.60491409 1302.08628098 -55.60491409 1302.08628098 -54.50045776 1302.23806763 C-32.30524191 1305.24722822 -10.14042487 1306.51207482 12.25 1306.4375 C13.39859497 1306.43567719 14.54718994 1306.43385437 15.73059082 1306.43197632 C35.08300772 1306.38058726 54.11390146 1305.59591746 73.3125 1303.125 C73.99300415 1303.03778687 74.6735083 1302.95057373 75.37463379 1302.86071777 C95.22120396 1300.29507595 114.84016992 1296.77149237 134.3125 1292.125 C135.22338379 1291.9079541 136.13426758 1291.6909082 137.07275391 1291.46728516 C200.09125855 1276.08798023 260.03812146 1247.32355824 312.3125 1209.125 C313.33682129 1208.37887451 313.33682129 1208.37887451 314.38183594 1207.61767578 C322.60786143 1201.60367452 330.56952151 1195.37078428 338.28515625 1188.71484375 C341.16699652 1186.24947588 344.10168938 1183.86946981 347.0625 1181.5 C351.3913608 1177.98162257 355.32090264 1174.22359641 359.2109375 1170.23046875 C361.11688122 1168.32098238 363.07030854 1166.55856497 365.125 1164.8125 C372.78735893 1158.22287132 379.94601178 1150.92521374 386.48828125 1143.2265625 C388.32854464 1141.10651602 390.23452652 1139.05694985 392.15380859 1137.00854492 C397.61221714 1131.16322319 402.62385525 1125.07522933 407.50390625 1118.7421875 C409.3712702 1116.3199086 411.27296803 1113.93326318 413.21484375 1111.5703125 C421.20861585 1101.82625278 428.34697817 1091.6235198 435.3125 1081.125 C436.15095459 1079.86816406 436.15095459 1079.86816406 437.00634766 1078.5859375 C443.88620505 1068.2513369 450.37242718 1057.81174496 456.31689453 1046.91308594 C457.23819708 1045.25844645 458.20892185 1043.63158739 459.18359375 1042.0078125 C488.65613933 992.8664787 506.57672027 933.52757409 515.3125 877.125 C515.49119629 875.9793457 515.66989258 874.83369141 515.85400391 873.65332031 C519.74347105 847.87110718 520.71362344 822.23998387 522.3125 796.125 C617.6825 796.125 713.0525 796.125 811.3125 796.125 C811.3125 826.94414634 811.3125 826.94414634 810.5625 839.8125 C810.51959839 840.57404388 810.47669678 841.33558777 810.43249512 842.12020874 C805.79394865 923.15694196 789.52997937 1004.29781818 760.3125 1080.125 C759.88179199 1081.25099609 759.45108398 1082.37699219 759.00732422 1083.53710938 C743.8144027 1123.03121321 725.7561497 1161.63016811 704.3125 1198.125 C703.74241211 1199.1042041 703.17232422 1200.0834082 702.58496094 1201.09228516 C686.34606904 1228.9335669 668.22567217 1255.61505928 648.72216797 1281.27001953 C647.38485451 1283.02978878 646.05346488 1284.79390364 644.72265625 1286.55859375 C639.67157064 1293.2240867 634.40266763 1299.65289669 628.96484375 1306.00390625 C626.52698781 1308.85611869 624.16517662 1311.76447753 621.8125 1314.6875 C617.75424232 1319.67668418 613.46734434 1324.40170615 609.0859375 1329.10546875 C606.97160492 1331.38497147 604.91669339 1333.70992584 602.875 1336.0546875 C592.85213191 1347.5499103 582.14298495 1358.39566155 571.375 1369.1875 C570.83715881 1369.72792938 570.29931763 1370.26835876 569.74517822 1370.82516479 C564.32953441 1376.26136232 558.8995695 1381.63034095 553.06274414 1386.61987305 C550.29810892 1388.99732822 547.65898342 1391.50591803 545 1394 C540.20254372 1398.46326707 535.28087627 1402.69474429 530.16796875 1406.796875 C527.54082753 1408.93883966 524.97915492 1411.13567731 522.42480469 1413.36279297 C514.01509684 1420.68287875 505.24291114 1427.45501523 496.3125 1434.125 C495.53680664 1434.70572266 494.76111328 1435.28644531 493.96191406 1435.88476562 C483.94049638 1443.37320758 473.82175459 1450.68929373 463.44824219 1457.68261719 C461.17096215 1459.22058821 458.90218456 1460.77070051 456.6328125 1462.3203125 C435.26244564 1476.82679132 413.14748056 1490.06021236 390.3125 1502.125 C388.97155273 1502.84067139 388.97155273 1502.84067139 387.60351562 1503.57080078 C362.08877407 1517.1862296 336.21435069 1529.4936342 309.3125 1540.125 C308.15347168 1540.58471191 306.99444336 1541.04442383 305.80029297 1541.51806641 C273.61344865 1554.20646161 240.85657902 1564.67738002 207.3125 1573.125 C206.63874329 1573.29473328 205.96498657 1573.46446655 205.27081299 1573.63934326 C162.96523366 1584.2492974 120.25876154 1590.52216153 76.85546875 1594.328125 C76.09830566 1594.39456207 75.34114258 1594.46099915 74.56103516 1594.52944946 C72.14547701 1594.73632731 69.7291602 1594.93142472 67.3125 1595.125 C65.76318535 1595.25603119 65.76318535 1595.25603119 64.18257141 1595.38970947 C55.05840165 1596.1129567 45.97767983 1596.30283125 36.83203125 1596.328125 C35.26493808 1596.33510191 33.69784518 1596.34214289 32.13075256 1596.34924316 C27.12883166 1596.36858928 22.12695422 1596.37342168 17.125 1596.375 C15.84788021 1596.37588371 15.84788021 1596.37588371 14.54496002 1596.37678528 C-11.55099661 1596.38954076 -37.49094523 1596.0292313 -63.47387695 1593.35284424 C-65.69227841 1593.12450817 -67.91143001 1592.90510699 -70.13085938 1592.68701172 C-152.20277172 1584.50992264 -231.99196802 1562.79431543 -337.6875 1516.125 C-338.79270996 1515.59165039 -339.89791992 1515.05830078 -341.03662109 1514.50878906 C-369.66289354 1500.61497078 -397.1316675 1484.64041081 -423.6875 1467.125 C-424.65961426 1466.48715576 -424.65961426 1466.48715576 -425.65136719 1465.83642578 C-434.82351302 1459.81503474 -443.81322368 1453.57640894 -452.6875 1447.125 C-453.41485352 1446.59890137 -454.14220703 1446.07280273 -454.89160156 1445.53076172 C-465.52894322 1437.82747561 -475.88271028 1429.8713849 -486.00683594 1421.50585938 C-488.2743871 1419.64280455 -490.57331347 1417.82062664 -492.875 1416 C-501.92177456 1408.77472367 -510.66462088 1401.22832607 -519.1953125 1393.40234375 C-521.40034688 1391.38739855 -523.62551665 1389.40251561 -525.875 1387.4375 C-526.80892578 1386.62152344 -526.80892578 1386.62152344 -527.76171875 1385.7890625 C-529.15242919 1384.58735327 -530.55201599 1383.39589013 -531.95703125 1382.2109375 C-533.06111328 1381.27121094 -533.06111328 1381.27121094 -534.1875 1380.3125 C-534.8578125 1379.74917969 -535.528125 1379.18585938 -536.21875 1378.60546875 C-537.6875 1377.125 -537.6875 1377.125 -537.6875 1375.125 C-538.25428467 1374.88346191 -538.82106934 1374.64192383 -539.4050293 1374.39306641 C-542.14078617 1372.87316896 -543.9996634 1371.0550479 -546.20703125 1368.8359375 C-547.49383789 1367.54623047 -547.49383789 1367.54623047 -548.80664062 1366.23046875 C-549.69544922 1365.32941406 -550.58425781 1364.42835937 -551.5 1363.5 C-552.37720703 1362.62214844 -553.25441406 1361.74429687 -554.15820312 1360.83984375 C-558.68199515 1356.28559987 -563.05354305 1351.65988736 -567.23706055 1346.79150391 C-568.96559334 1344.80548053 -570.79380143 1342.95339862 -572.6875 1341.125 C-575.90184731 1337.9538397 -578.90500963 1334.66917247 -581.84765625 1331.24609375 C-583.88258819 1328.90008942 -585.97040967 1326.6076355 -588.0625 1324.3125 C-592.79356078 1319.06373055 -597.2480944 1313.62074938 -601.6875 1308.125 C-602.72193444 1306.85878497 -603.75713622 1305.59319657 -604.79296875 1304.328125 C-616.27715655 1290.28736254 -627.1615837 1275.89643873 -637.6875 1261.125 C-638.26580566 1260.31579102 -638.84411133 1259.50658203 -639.43994141 1258.67285156 C-647.94878018 1246.74307871 -656.03966398 1234.62416232 -663.6875 1222.125 C-664.55544189 1220.70791748 -664.55544189 1220.70791748 -665.44091797 1219.26220703 C-674.38036709 1204.61824371 -682.95979752 1189.793142 -691.23339844 1174.76318359 C-692.44083508 1172.57252537 -693.65907959 1170.38859522 -694.8828125 1168.20703125 C-701.51327945 1156.15289782 -707.13573964 1143.58375609 -712.81066895 1131.05969238 C-713.39304298 1129.77470755 -713.97628861 1128.49011736 -714.5604248 1127.20593262 C-740.29143618 1070.62651767 -759.03319021 1011.18276944 -770.6875 950.125 C-770.81771545 949.44598633 -770.94793091 948.76697266 -771.08209229 948.06738281 C-777.49850905 914.45692291 -781.91570629 880.30547121 -783.6875 846.125 C-783.72846802 845.36746429 -783.76943604 844.60992859 -783.81164551 843.82943726 C-784.70496561 826.99262108 -784.9298761 810.17114884 -784.9375 793.3125 C-784.93794186 792.63813652 -784.93838371 791.96377304 -784.93883896 791.2689743 C-784.96585959 712.16922953 -771.98836811 634.55868532 -702.23632812 443.25341797 C-700.8264629 440.40568578 -699.4335457 437.55048268 -698.046875 434.69140625 C-691.78819126 421.86639799 -684.83767079 409.47127137 -677.6875 397.125 C-677.23777832 396.33818848 -676.78805664 395.55137695 -676.32470703 394.74072266 C-662.14894774 369.98011016 -645.87808048 345.89038611 -628.6875 323.125 C-628.25373047 322.54927246 -627.81996094 321.97354492 -627.37304688 321.38037109 C-624.51421784 317.59986076 -621.60805588 313.85811117 -618.6875 310.125 C-617.79530585 308.97416533 -616.90338637 307.82311768 -616.01171875 306.671875 C-610.2059135 299.20063894 -604.21265022 291.9196509 -598.05810547 284.73388672 C-596.68634576 283.12364509 -595.32766575 281.50325865 -593.97265625 279.87890625 C-588.03431299 272.77145499 -581.89643968 265.90046094 -575.56201172 259.14306641 C-574.10131542 257.57050641 -572.65210827 255.98727186 -571.20751953 254.39990234 C-563.54470434 245.99222471 -555.60525679 237.88802067 -547.54980469 229.85693359 C-545.42265216 227.73518991 -543.30096439 225.60808509 -541.1796875 223.48046875 C-539.80240417 222.1038456 -538.42481101 220.72753234 -537.046875 219.3515625 C-536.425849 218.72851227 -535.804823 218.10546204 -535.16497803 217.46353149 C-531.3891734 213.70751965 -527.49623008 210.13824931 -523.46182251 206.66120911 C-520.163766 203.80575052 -516.98765066 200.8135298 -513.7890625 197.84765625 C-511.6875 196.125 -511.6875 196.125 -509.6875 196.125 C-509.6875 195.465 -509.6875 194.805 -509.6875 194.125 C-507.66018507 192.40163034 -505.6222181 190.78684876 -503.5 189.1875 C-498.60210615 185.42578298 -493.80707197 181.58967137 -489.125 177.5625 C-482.82463006 172.1784269 -476.32182925 167.08996852 -469.6875 162.125 C-468.99414551 161.60566895 -468.30079102 161.08633789 -467.58642578 160.55126953 C-442.19719021 141.58548287 -416.01221441 124.18029078 -388.6875 108.125 C-387.88086914 107.64885254 -387.07423828 107.17270508 -386.24316406 106.68212891 C-343.18805047 81.3510563 -297.39491921 60.48864275 -250.14599609 44.31054688 C-246.61950681 43.10169244 -243.10104272 41.8710553 -239.58203125 40.640625 C-164.47759339 14.68693413 -83.25527909 0.49110635 0 0 Z " fill="#00674C" transform="translate(784.6875,-0.125)"/>
<path d="M0 0 C0.95374512 0.17901855 1.90749023 0.35803711 2.89013672 0.54248047 C56.25489716 10.770194 107.68406833 35.04804065 150 69 C150.8053418 69.63977783 150.8053418 69.63977783 151.62695312 70.29248047 C157.49484242 74.9583989 163.13325917 79.83968604 168.671875 84.890625 C170.73153033 86.75675567 172.82388895 88.57069788 174.9375 90.375 C182.88759569 97.31121709 190.19409066 104.94753464 197 113 C197.80824219 113.93070313 198.61648438 114.86140625 199.44921875 115.8203125 C261.34733825 187.42198825 288.90152679 278.40183679 284.53515625 378.35546875 C277.22600903 468.19755414 234.46119571 551.0316323 166.9375 613.6875 C165.62690054 614.79392186 164.31419509 615.8978514 163 617 C162.09636719 617.79277344 161.19273437 618.58554688 160.26171875 619.40234375 C113.20682388 660.4635114 52.08530975 687.99613266 -9.3125 698.125 C-10.27188477 698.28395752 -11.23126953 698.44291504 -12.21972656 698.60668945 C-31.00815921 701.55343818 -49.56040057 702.37121361 -68.5625 702.3125 C-70.35107422 702.31026428 -70.35107422 702.31026428 -72.17578125 702.3079834 C-89.3042483 702.26946275 -106.07463224 701.85081244 -123 699 C-124.3929126 698.7831958 -124.3929126 698.7831958 -125.81396484 698.56201172 C-164.01614825 692.59477913 -200.80630865 679.98275491 -235 662 C-235.75039551 661.61150879 -236.50079102 661.22301758 -237.27392578 660.82275391 C-256.04936881 651.06044559 -273.50518335 639.24199267 -290 626 C-290.89074219 625.30132813 -291.78148437 624.60265625 -292.69921875 623.8828125 C-303.93958131 614.92334103 -314.22297381 604.84484379 -324.4375 594.75 C-325.09459961 594.10595215 -325.75169922 593.4619043 -326.42871094 592.79833984 C-327.02844727 592.19973145 -327.62818359 591.60112305 -328.24609375 590.984375 C-329.04551392 590.19111816 -329.04551392 590.19111816 -329.86108398 589.38183594 C-331 588 -331 588 -331 586 C-331.66 586 -332.32 586 -333 586 C-334.7421875 584.12109375 -334.7421875 584.12109375 -336.875 581.4375 C-337.68066406 580.42816406 -338.48632812 579.41882812 -339.31640625 578.37890625 C-339.96826904 577.55543701 -339.96826904 577.55543701 -340.63330078 576.71533203 C-342.02096318 574.9736893 -343.42773408 573.24920651 -344.83984375 571.52734375 C-383.33252802 524.40335384 -408.53456852 467.72759939 -418.75 407.8125 C-418.94883789 406.65065186 -419.14767578 405.48880371 -419.35253906 404.29174805 C-422.32484433 385.90347698 -423.38191792 367.61160877 -423.3125 349 C-423.31067719 347.97741089 -423.30885437 346.95482178 -423.30697632 345.90124512 C-423.25676447 329.09090767 -422.5598312 312.64015152 -420 296 C-419.74259033 294.31801514 -419.74259033 294.31801514 -419.47998047 292.60205078 C-409.48152273 229.61802162 -383.11702931 168.18009742 -340.73828125 120.140625 C-338.36132595 117.44408591 -336.14445268 114.65063244 -333.9375 111.8125 C-324.40645388 100.08600267 -313.23001947 89.09178567 -301.3046875 79.8125 C-299.09168509 78.07210488 -297.05672266 76.23317485 -295 74.3125 C-261.70088373 44.54957307 -219.24542496 23.5305343 -177 10 C-175.6689624 9.5676001 -175.6689624 9.5676001 -174.31103516 9.12646484 C-118.38784552 -8.82334327 -57.52209966 -10.90560644 0 0 Z " fill="#6EC72D" transform="translate(869,450)"/>
<path d="M0 0 C0.9492334 0.18272461 1.8984668 0.36544922 2.87646484 0.55371094 C40.68873807 8.18255785 75.08184936 27.56540554 102.45605469 54.48681641 C103.80021286 55.80419344 105.16772339 57.09765999 106.5390625 58.38671875 C113.10200441 64.65977806 118.56219149 71.75683038 124 79 C124.62777344 79.83273438 125.25554687 80.66546875 125.90234375 81.5234375 C150.85255824 115.9253803 163.21571222 156.92667974 163.25 199.25 C163.25067474 200.00155365 163.25134949 200.7531073 163.25204468 201.5274353 C163.23401717 214.22233564 162.47637889 226.51905037 160 239 C159.82839355 239.87366211 159.65678711 240.74732422 159.47998047 241.64746094 C151.88155772 279.03523187 133.74062381 312.97543443 107.41210938 340.52050781 C106.4756544 341.5016484 105.54457769 342.48795247 104.61914062 343.47949219 C71.29470932 379.13052342 21.58626215 401.1070317 -26.96777344 403.16845703 C-73.28331125 404.59489324 -119.0092334 394.84550506 -157 367 C-158.051875 366.23171875 -159.10375 365.4634375 -160.1875 364.671875 C-167.9140087 358.92470561 -175.04966587 352.65617629 -182 346 C-182.49886719 345.52836426 -182.99773437 345.05672852 -183.51171875 344.57080078 C-213.14921895 316.44755589 -231.89894087 278.78295122 -240 239 C-240.26683594 237.68974854 -240.26683594 237.68974854 -240.5390625 236.35302734 C-250.28856752 185.64206024 -238.6982358 130.55736717 -210.19140625 87.734375 C-196.6481684 67.85388194 -180.41470096 50.24457341 -161 36 C-159.96488281 35.23171875 -158.92976563 34.4634375 -157.86328125 33.671875 C-139.37983568 20.40646613 -118.06796112 9.69655562 -96 4 C-95.24283691 3.79922852 -94.48567383 3.59845703 -93.70556641 3.39160156 C-63.41611006 -4.57100016 -30.84102222 -5.98630029 0 0 Z " fill="#00674C" transform="translate(1288,150)"/>
</svg>
